# File created by Blade
# Date/Time:  Wed Jan 21 18:40:15 2015
#---------------------------------------------------------
:version 1.10
:name HOM
:units
  mass 1.0
  length 1.000000
  angle deg
:documentation
     Acclaim Skeleton File
:root
   axis xyz
   order TX TY TZ RX RY RZ
   position 0.000000 0.000000 0.000000
   orientation 0 0 0
:bonedata
   begin
      id 1
      name RightUpLeg_dum
      direction -1.000000 0.000000 0.000000
      length 3.693983
      axis 0.0 0.0 0.0 xyz
   end
   begin
      id 2
      name LeftUpLeg_dum
      direction 1.000000 0.000000 0.000000
      length 3.693983
      axis 0.0 0.0 0.0 xyz
   end
   begin
      id 3
      name Spine_dum
      direction 0.000000 1.000000 0.000000
      length 2.392956
      axis 0.0 0.0 0.0 xyz
   end
   begin
      id 4
      name RightUpLeg
      direction 0.000000 -1.000000 0.000000
      length 15.795667
      axis 0.0 0.0 0.0 xyz
      dof rx ry rz
   end
   begin
      id 5
      name RightLeg
      direction 0.000000 -1.000000 0.000000
      length 14.766989
      axis 0.0 0.0 0.0 xyz
      dof rx ry rz
   end
   begin
      id 6
      name RightFoot
      direction 0.000000 -0.258819 0.965926
      length 4.962790
      axis 15.0 0.0 0.0 xyz
      dof rx ry rz
   end
   begin
      id 7
      name RightToeBase
      direction 0.000000 0.000000 1.000000
      length 2.952750
      axis 0.0 0.0 0.0 xyz
      dof rx ry rz
   end
   begin
      id 8
      name LeftUpLeg
      direction 0.000000 -1.000000 0.000000
      length 15.795667
      axis 0.0 0.0 0.0 xyz
      dof rx ry rz
   end
   begin
      id 9
      name LeftLeg
      direction 0.000000 -1.000000 0.000000
      length 14.766989
      axis 0.0 0.0 0.0 xyz
      dof rx ry rz
   end
   begin
      id 10
      name LeftFoot
      direction 0.000000 -0.258819 0.965926
      length 4.962790
      axis 15.0 0.0 0.0 xyz
      dof rx ry rz
   end
   begin
      id 11
      name LeftToeBase
      direction 0.000000 0.000000 1.000000
      length 2.952750
      axis 0.0 0.0 0.0 xyz
      dof rx ry rz
   end
   begin
      id 12
      name Spine
      direction 0.000000 1.000000 0.000000
      length 0.000000
      axis 0.0 0.0 0.0 xyz
      dof rx ry rz
   end
   begin
      id 13
      name Spine_dum1
      direction 0.000000 1.000000 0.000000
      length 13.207411
      axis 0.0 0.0 0.0 xyz
   end
   begin
      id 14
      name Spine_dum2
      direction 0.000000 1.000000 0.000000
      length 13.207411
      axis 0.0 0.0 0.0 xyz
   end
   begin
      id 15
      name Spine_dum3
      direction 0.000000 1.000000 0.000000
      length 19.250100
      axis 0.0 0.0 0.0 xyz
   end
   begin
      id 16
      name RightShoulder
      direction -1.000000 0.000000 0.000000
      length 8.140465
      axis 0.0 0.0 90.0 xyz
      dof rx ry rz
   end
   begin
      id 17
      name RightArm
      direction -1.000000 0.000000 0.000000
      length 10.649840
      axis 0.0 0.0 90.0 xyz
      dof rx ry rz
   end
   begin
      id 18
      name RightForeArm
      direction -1.000000 0.000000 0.000000
      length 8.304624
      axis 0.0 0.0 90.0 xyz
      dof ry rz rx
   end
   begin
      id 19
      name RightHand
      direction -1.000000 0.000000 0.000000
      length 0.000000
      axis 0.0 0.0 90.0 xyz
      dof rx ry rz
   end
   begin
      id 20
      name RightHand_dum1
      direction -1.000000 0.000000 0.000000
      length 3.937000
      axis 0.0 0.0 90.0 xyz
   end
   begin
      id 21
      name RightHand_dum2
      direction 0.000000 0.000000 0.000000
      length 0.000000
      axis 0.0 0.0 90.0 xyz
   end
   begin
      id 22
      name RightHandThumb1
      direction 0.000000 0.000000 1.000000
      length 3.937000
      axis 0.0 0.0 90.0 xyz
      dof rx rz ry
   end
   begin
      id 23
      name LeftShoulder
      direction 1.000000 0.000000 0.000000
      length 8.140465
      axis 0.0 0.0 -90.0 xyz
      dof rx ry rz
   end
   begin
      id 24
      name LeftArm
      direction 1.000000 0.000000 0.000000
      length 10.649840
      axis 0.0 0.0 -90.0 xyz
      dof rx ry rz
   end
   begin
      id 25
      name LeftForeArm
      direction 1.000000 0.000000 0.000000
      length 8.304624
      axis 0.0 0.0 -90.0 xyz
      dof ry rz rx
   end
   begin
      id 26
      name LeftHand
      direction 1.000000 0.000000 0.000000
      length 0.000000
      axis 0.0 0.0 -90.0 xyz
      dof rx ry rz
   end
   begin
      id 27
      name LeftHand_dum1
      direction 1.000000 0.000000 0.000000
      length 3.937000
      axis 0.0 0.0 -90.0 xyz
   end
   begin
      id 28
      name LeftHand_dum2
      direction 0.000000 0.000000 0.000000
      length 0.000000
      axis 0.0 0.0 -90.0 xyz
   end
   begin
      id 29
      name LeftHandThumb1
      direction 0.000000 0.000000 1.000000
      length 3.937000
      axis 0.0 0.0 -90.0 xyz
      dof rx rz ry
   end
   begin
      id 30
      name Head
      direction 0.000000 1.000000 0.000000
      length 4.527550
      axis 0.0 0.0 0.0 xyz
      dof rx ry rz
   end
:hierarchy
   begin
      root RightUpLeg_dum LeftUpLeg_dum Spine_dum
      RightUpLeg_dum RightUpLeg
      LeftUpLeg_dum LeftUpLeg
      Spine_dum Spine
      RightUpLeg RightLeg
      RightLeg RightFoot
      RightFoot RightToeBase
      LeftUpLeg LeftLeg
      LeftLeg LeftFoot
      LeftFoot LeftToeBase
      Spine Spine_dum1 Spine_dum2 Spine_dum3
      Spine_dum1 RightShoulder
      Spine_dum2 LeftShoulder
      Spine_dum3 Head
      RightShoulder RightArm
      RightArm RightForeArm
      RightForeArm RightHand
      RightHand RightHand_dum1 RightHand_dum2
      RightHand_dum2 RightHandThumb1
      LeftShoulder LeftArm
      LeftArm LeftForeArm
      LeftForeArm LeftHand
      LeftHand LeftHand_dum1 LeftHand_dum2
      LeftHand_dum2 LeftHandThumb1
   end

# File created by Blade
# Date/Time:  Wed Jan 21 18:40:08 2015
# Frame Rate: 120.000 fps
#------------------------------------------------------
:FULLY-SPECIFIED
:DEGREES
2073
root -1.296144 26.173885 -10.729741 80.030455 -20.118522 10.502779
RightUpLeg -139.953093 -26.714364 23.517601
RightLeg 56.032985 -0.000000 -0.000000
RightFoot -1.885274 29.020435 31.993008
RightToeBase 19.371388 -0.000000 -0.000000
LeftUpLeg -84.142923 27.577465 -24.272935
LeftLeg -5.862277 -0.000000 0.000000
LeftFoot 3.399060 8.379488 -24.265523
LeftToeBase 7.989749 -0.000000 -0.000000
Spine -37.155484 -0.039117 8.978730
RightShoulder -12.720293 19.982803 -36.788849
RightArm 0.946246 -16.344737 67.011466
RightForeArm -1.255840 -0.000000 25.329244
RightHand 15.885816 -0.000000 -22.884623
RightHandThumb1 -24.326973 -0.000000 -32.862282
LeftShoulder -6.166314 2.376983 34.142987
LeftArm 22.094366 21.289030 -71.772593
LeftForeArm 10.368317 0.000000 25.866836
LeftHand -14.615797 0.000000 3.360166
LeftHandThumb1 -26.253704 0.000000 33.147579
Head -6.030055 -19.408285 19.921231
2074
root -1.319797 26.132422 -10.729562 79.817751 -19.999469 10.619760
RightUpLeg -140.072103 -26.883683 23.592930
RightLeg 56.484924 -0.000000 -0.000000
RightFoot -2.089576 29.112306 31.826455
RightToeBase 19.326793 -0.000000 -0.000000
LeftUpLeg -84.049696 27.638963 -24.387079
LeftLeg -5.939467 -0.000000 0.000000
LeftFoot 3.623085 8.283776 -24.124854
LeftToeBase 7.837706 -0.000000 -0.000000
Spine -37.077542 0.033295 8.995103
RightShoulder -12.781682 20.137425 -36.718440
RightArm 1.370348 -16.992274 66.673955
RightForeArm -0.784152 -0.000000 24.742560
RightHand 16.068227 -0.000000 -22.944155
RightHandThumb1 -24.326973 -0.000000 -32.862282
LeftShoulder -6.199379 2.357067 34.134376
LeftArm 21.852361 20.974364 -71.597955
LeftForeArm 10.160597 -0.000000 25.387265
LeftHand -14.737311 0.000000 3.723708
LeftHandThumb1 -26.253704 0.000000 33.147579
Head -6.078963 -19.542662 19.941924
2075
root -1.343944 26.091042 -10.731515 79.642399 -19.928007 10.771318
RightUpLeg -140.267268 -27.051228 23.647294
RightLeg 56.934670 -0.000000 -0.000000
RightFoot -2.260632 29.211867 31.671931
RightToeBase 19.328774 -0.000000 -0.000000
LeftUpLeg -84.018817 27.654849 -24.604616
LeftLeg -5.998430 -0.000000 0.000000
LeftFoot 3.794585 8.215630 -24.186963
LeftToeBase 7.868162 -0.000000 -0.000000
Spine -37.079641 0.056039 8.980379
RightShoulder -12.685592 20.094902 -36.569459
RightArm 1.952419 -17.446914 66.326498
RightForeArm -0.369965 -0.000000 24.149224
RightHand 16.301482 -0.000000 -22.839054
RightHandThumb1 -24.326973 -0.000000 -32.862282
LeftShoulder -6.259537 2.899593 34.094818
LeftArm 22.161624 20.480617 -71.272274
LeftForeArm 10.016041 0.000000 24.867562
LeftHand -14.641788 0.000000 3.801925
LeftHandThumb1 -26.253704 0.000000 33.147579
Head -5.982294 -19.556627 19.910457
2076
root -1.369386 26.052052 -10.732521 79.437879 -19.819670 10.881108
RightUpLeg -140.384411 -27.198989 23.740676
RightLeg 57.359685 -0.000000 -0.000000
RightFoot -2.420496 29.333735 31.572126
RightToeBase 19.310144 -0.000000 -0.000000
LeftUpLeg -83.974613 27.716705 -24.741368
LeftLeg -6.005161 -0.000000 0.000000
LeftFoot 3.939713 8.140954 -24.104825
LeftToeBase 7.868466 -0.000000 -0.000000
Spine -36.992709 0.115227 9.019316
RightShoulder -12.668650 20.228520 -36.479158
RightArm 2.428734 -17.986178 66.039389
RightForeArm 0.129232 0.000000 23.538839
RightHand 16.458850 -0.000000 -22.618557
RightHandThumb1 -24.326973 -0.000000 -32.862282
LeftShoulder -6.348613 2.922644 34.081317
LeftArm 21.993587 20.189005 -71.078923
LeftForeArm 9.793867 -0.000000 24.258730
LeftHand -14.436324 -0.000000 3.857731
LeftHandThumb1 -26.253704 0.000000 33.147579
Head -5.998663 -19.611009 19.886684
2077
root -1.391244 26.014949 -10.735820 79.275073 -19.760066 11.027275
RightUpLeg -140.586251 -27.347768 23.820201
RightLeg 57.777573 -0.000000 -0.000000
RightFoot -2.546049 29.444425 31.420190
RightToeBase 19.249511 -0.000000 -0.000000
LeftUpLeg -83.962769 27.724685 -24.933218
LeftLeg -6.015744 -0.000000 0.000000
LeftFoot 4.091027 8.079093 -24.051812
LeftToeBase 7.886314 -0.000000 -0.000000
Spine -36.981904 0.177023 8.993192
RightShoulder -12.591088 20.463556 -36.406915
RightArm 2.800678 -18.442350 65.808524
RightForeArm 0.804124 -0.000000 22.830113
RightHand 16.635235 -0.000000 -22.549288
RightHandThumb1 -24.326973 -0.000000 -32.862282
LeftShoulder -6.325764 2.925951 34.136321
LeftArm 21.734467 19.878091 -70.980897
LeftForeArm 9.760743 -0.000000 23.712585
LeftHand -14.389038 -0.000000 3.890663
LeftHandThumb1 -26.253704 0.000000 33.147579
Head -5.925110 -19.687608 19.793156
2078
root -1.413162 25.977491 -10.733730 79.121897 -19.730457 11.181540
RightUpLeg -140.811315 -27.480165 23.918361
RightLeg 58.182744 -0.000000 -0.000000
RightFoot -2.688597 29.591072 31.232219
RightToeBase 19.254890 -0.000000 -0.000000
LeftUpLeg -83.926953 27.729219 -25.139910
LeftLeg -6.050299 -0.000000 0.000000
LeftFoot 4.246075 8.011156 -24.000970
LeftToeBase 7.889725 -0.000000 -0.000000
Spine -36.989857 0.265778 8.921849
RightShoulder -12.494587 20.533539 -36.282618
RightArm 3.289355 -18.766618 65.547545
RightForeArm 1.441754 -0.000000 22.162147
RightHand 16.808140 -0.000000 -22.247194
RightHandThumb1 -24.326973 -0.000000 -32.862282
LeftShoulder -6.318267 3.027212 34.161163
LeftArm 21.609634 19.622500 -70.799524
LeftForeArm 9.803931 -0.000000 23.194481
LeftHand -14.426989 -0.000000 3.917787
LeftHandThumb1 -26.253704 0.000000 33.147579
Head -5.861064 -19.735105 19.769046
2079
root -1.436308 25.942967 -10.736904 78.985675 -19.701888 11.290180
RightUpLeg -140.995872 -27.571407 23.989550
RightLeg 58.559682 -0.000000 -0.000000
RightFoot -2.749602 29.706670 31.147201
RightToeBase 19.166610 -0.000000 -0.000000
LeftUpLeg -83.918884 27.771869 -25.302104
LeftLeg -6.043977 -0.000000 0.000000
LeftFoot 4.396075 7.935731 -23.872797
LeftToeBase 7.850818 -0.000000 -0.000000
Spine -36.960579 0.378895 8.849095
RightShoulder -12.406810 20.710701 -36.143880
RightArm 3.754135 -19.142064 65.295961
RightForeArm 2.224256 0.000000 21.415988
RightHand 17.028213 -0.000000 -21.943489
RightHandThumb1 -24.326973 -0.000000 -32.862282
LeftShoulder -6.433221 2.907357 34.251175
LeftArm 21.415832 19.621727 -70.648347
LeftForeArm 9.990783 -0.000000 22.553823
LeftHand -14.421378 -0.000000 3.904890
LeftHandThumb1 -26.253704 0.000000 33.147579
Head -5.851337 -19.830457 19.777038
2080
root -1.458635 25.912054 -10.742313 78.885967 -19.631376 11.353562
RightUpLeg -141.164778 -27.611976 24.133440
RightLeg 58.887043 -0.000000 -0.000000
RightFoot -2.861895 29.837478 30.965813
RightToeBase 19.148485 -0.000000 -0.000000
LeftUpLeg -83.936959 27.821144 -25.370416
LeftLeg -6.017196 -0.000000 0.000000
LeftFoot 4.483612 7.925664 -23.818718
LeftToeBase 7.846958 -0.000000 -0.000000
Spine -36.939441 0.578503 8.817413
RightShoulder -12.298329 20.866039 -36.022670
RightArm 4.199550 -19.523859 65.040145
RightForeArm 3.030208 -0.000000 20.719149
RightHand 17.082352 -0.000000 -21.659383
RightHandThumb1 -24.326973 -0.000000 -32.862282
LeftShoulder -6.454668 3.039245 34.293553
LeftArm 21.404032 19.414525 -70.438653
LeftForeArm 10.217608 -0.000000 22.034759
LeftHand -14.345559 -0.000000 3.804238
LeftHandThumb1 -26.253704 0.000000 33.147579
Head -5.851086 -19.949599 19.749198
2081
root -1.486726 25.882101 -10.751909 78.786408 -19.584096 11.363526
RightUpLeg -141.266432 -27.589311 24.242417
RightLeg 59.170400 -0.000000 -0.000000
RightFoot -2.936346 29.966664 30.884377
RightToeBase 19.209488 -0.000000 -0.000000
LeftUpLeg -84.004807 27.937337 -25.488305
LeftLeg -5.956889 -0.000000 0.000000
LeftFoot 4.573430 7.877727 -23.758931
LeftToeBase 7.882997 -0.000000 -0.000000
Spine -36.851004 0.808668 8.744603
RightShoulder -12.255874 21.275960 -35.929049
RightArm 4.455582 -20.226123 64.819041
RightForeArm 3.993327 -0.000000 20.042899
RightHand 17.055318 -0.000000 -21.333027
RightHandThumb1 -24.326973 -0.000000 -32.862282
LeftShoulder -6.600739 3.051356 34.397313
LeftArm 21.384399 19.432295 -70.210017
LeftForeArm 10.407726 -0.000000 21.512153
LeftHand -14.479128 -0.000000 3.733698
LeftHandThumb1 -26.253704 0.000000 33.147579
Head -5.975145 -20.080200 19.842510
2082
root -1.507902 25.853108 -10.755202 78.727773 -19.604946 11.446041
RightUpLeg -141.510435 -27.589738 24.386006
RightLeg 59.465931 -0.000000 -0.000000
RightFoot -2.971790 30.136925 30.708688
RightToeBase 19.151751 -0.000000 -0.000000
LeftUpLeg -84.057743 27.964887 -25.673188
LeftLeg -5.928858 -0.000000 0.000000
LeftFoot 4.602363 7.850338 -23.786979
LeftToeBase 8.029188 -0.000000 -0.000000
Spine -36.868061 1.058128 8.588670
RightShoulder -12.140091 21.663972 -35.853986
RightArm 4.585791 -20.647332 64.673815
RightForeArm 4.835385 0.000000 19.497944
RightHand 16.891128 0.000000 -21.127511
RightHandThumb1 -24.326973 -0.000000 -32.862282
LeftShoulder -6.641621 3.202939 34.449498
LeftArm 21.492727 19.408416 -69.906072
LeftForeArm 10.524354 -0.000000 20.982023
LeftHand -14.437379 0.000000 3.646961
LeftHandThumb1 -26.253704 0.000000 33.147579
Head -6.016337 -20.242397 19.851792
